<svg width="63" height="81" viewBox="0 0 63 81" fill="none" xmlns="http://www.w3.org/2000/svg">
<path d="M3.5 47C3.5 39.5442 9.54416 33.5 17 33.5H46C53.4558 33.5 59.5 39.5442 59.5 47V64C59.5 71.4558 53.4558 77.5 46 77.5H17C9.54416 77.5 3.5 71.4558 3.5 64V47Z" stroke="#06283D" stroke-width="7"/>
<path d="M48 34V21C48 11.6112 40.3888 4 31 4V4C21.6112 4 14 11.6112 14 21V34" stroke="#06283D" stroke-width="7"/>
<rect x="41.4" y="51.4785" width="7.44348" height="2.7913" rx="1.39565" transform="rotate(-90 41.4 51.4785)" fill="#06283D"/>
<rect x="20" y="51.4785" width="7.44348" height="2.7913" rx="1.39565" transform="rotate(-90 20 51.4785)" fill="#06283D"/>
<path fill-rule="evenodd" clip-rule="evenodd" d="M29.2149 57.9393C28.4417 57.9393 27.8147 57.3123 27.8147 56.5391C27.8147 55.7658 28.4417 55.1389 29.2149 55.1389C29.9882 55.1389 30.6151 54.5119 30.6151 53.7387V45.4002C30.6151 44.627 31.2421 44 32.0153 44C32.7886 44 33.4155 44.627 33.4155 45.4002V53.7387C33.3737 56.0793 31.5138 57.9393 29.2149 57.9393ZM31.9944 66.2777C28.8388 66.2777 26.1847 65.2119 24.053 63.0803C23.5097 62.5369 23.5097 61.6592 24.053 61.1158C24.5964 60.5725 25.4741 60.5725 26.0175 61.1158C27.6058 62.725 29.5702 63.4982 31.9944 63.4982C34.4187 63.4982 36.3622 62.725 37.9714 61.1158C38.5147 60.5725 39.3925 60.5725 39.9358 61.1158C40.4792 61.6592 40.4792 62.5369 39.9358 63.0803C37.8042 65.2119 35.1292 66.2777 31.9944 66.2777Z" fill="#06283D"/>
</svg>
