<svg width="20" height="20" viewBox="0 0 20 20" fill="none" xmlns="http://www.w3.org/2000/svg">
<path d="M18.8 10.2083C18.8 9.55825 18.7417 8.93325 18.6333 8.33325H10V11.8791H14.9333C14.7208 13.0249 14.075 13.9958 13.1042 14.6458V16.9458H16.0667C17.8 15.3499 18.8 12.9999 18.8 10.2083Z" fill="#4285F4"/>
<path d="M10 19.1667C12.475 19.1667 14.55 18.3459 16.0667 16.9459L13.1042 14.6459C12.2833 15.1959 11.2333 15.5209 10 15.5209C7.61252 15.5209 5.59168 13.9084 4.87085 11.7417H1.80835V14.1167C3.31668 17.1125 6.41668 19.1667 10 19.1667Z" fill="#34A853"/>
<path d="M4.87087 11.7416C4.68754 11.1916 4.58337 10.6041 4.58337 9.99997C4.58337 9.3958 4.68754 8.8083 4.87087 8.2583V5.8833H1.80837C1.16671 7.16068 0.832809 8.57048 0.833375 9.99997C0.833375 11.4791 1.18754 12.8791 1.80837 14.1166L4.87087 11.7416Z" fill="#FBBC05"/>
<path d="M10 4.47909C11.3458 4.47909 12.5542 4.94159 13.5042 5.84992L16.1334 3.22075C14.5459 1.74159 12.4708 0.833252 10 0.833252C6.41668 0.833252 3.31668 2.88742 1.80835 5.88325L4.87085 8.25825C5.59168 6.09159 7.61252 4.47909 10 4.47909Z" fill="#EA4335"/>
</svg>
