<svg width="86" height="87" viewBox="0 0 86 87" fill="none" xmlns="http://www.w3.org/2000/svg">
<path d="M26.5 53C26.5 45.5442 32.5442 39.5 40 39.5H69C76.4558 39.5 82.5 45.5442 82.5 53V70C82.5 77.4558 76.4558 83.5 69 83.5H40C32.5442 83.5 26.5 77.4558 26.5 70V53Z" stroke="#06283D" stroke-width="7"/>
<path d="M8 26.5C8 28.7091 6.20914 30.5 4 30.5C1.79086 30.5 0 28.7091 0 26.5H8ZM8 21V26.5H0V21H8ZM34 40V21H42V40H34ZM21 8C13.8203 8 8 13.8203 8 21H0C0 9.40202 9.40202 0 21 0V8ZM21 0C32.598 0 42 9.40202 42 21H34C34 13.8203 28.1797 8 21 8V0Z" fill="#06283D"/>
<rect x="64.4" y="57.4785" width="7.44348" height="2.7913" rx="1.39565" transform="rotate(-90 64.4 57.4785)" fill="#06283D"/>
<rect x="43" y="57.4785" width="7.44348" height="2.7913" rx="1.39565" transform="rotate(-90 43 57.4785)" fill="#06283D"/>
<path fill-rule="evenodd" clip-rule="evenodd" d="M52.2149 63.9393C51.4417 63.9393 50.8147 63.3123 50.8147 62.5391C50.8147 61.7658 51.4417 61.1389 52.2149 61.1389C52.9882 61.1389 53.6151 60.5119 53.6151 59.7387V51.4002C53.6151 50.627 54.2421 50 55.0153 50C55.7886 50 56.4155 50.627 56.4155 51.4002V59.7387C56.3737 62.0793 54.5138 63.9393 52.2149 63.9393ZM54.9944 72.2777C51.8388 72.2777 49.1847 71.2119 47.053 69.0803C46.5097 68.5369 46.5097 67.6592 47.053 67.1158C47.5964 66.5725 48.4741 66.5725 49.0175 67.1158C50.6058 68.725 52.5702 69.4982 54.9944 69.4982C57.4187 69.4982 59.3622 68.725 60.9714 67.1158C61.5147 66.5725 62.3925 66.5725 62.9358 67.1158C63.4792 67.6592 63.4792 68.5369 62.9358 69.0803C60.8042 71.2119 58.1292 72.2777 54.9944 72.2777Z" fill="#06283D"/>
</svg>
