<svg width="20" height="21" viewBox="0 0 20 21" fill="none" xmlns="http://www.w3.org/2000/svg">
<path d="M12.9833 10.4999C12.9833 12.1499 11.65 13.4833 10 13.4833C8.35 13.4833 7.01666 12.1499 7.01666 10.4999C7.01666 8.84993 8.35 7.5166 10 7.5166C11.65 7.5166 12.9833 8.84993 12.9833 10.4999Z" stroke="#292D32" stroke-width="1.5" stroke-linecap="round" stroke-linejoin="round"/>
<path d="M9.99999 17.3918C12.9417 17.3918 15.6833 15.6584 17.5917 12.6584C18.3417 11.4834 18.3417 9.50843 17.5917 8.33343C15.6833 5.33343 12.9417 3.6001 9.99999 3.6001C7.05833 3.6001 4.31666 5.33343 2.40833 8.33343C1.65833 9.50843 1.65833 11.4834 2.40833 12.6584C4.31666 15.6584 7.05833 17.3918 9.99999 17.3918Z" stroke="#292D32" stroke-width="1.5" stroke-linecap="round" stroke-linejoin="round"/>
</svg>
